<svg xmlns="http://www.w3.org/2000/svg" viewBox="0 0 117.99 113.16"><defs><style>.cls-1{fill:#000000;}</style></defs><title>Asset 2</title><g id="Layer_2" data-name="Layer 2"><g id="Layer_1-2" data-name="Layer 1"><path class="cls-1" d="M36.41,109.18a11,11,0,0,1-1.84-.52,56.1,56.1,0,0,1-6.28-3.17q-3.05-1.79-5.93-3.86a9.45,9.45,0,0,1-2.65-3.28,10.29,10.29,0,0,1-1-4,9.77,9.77,0,0,1,.86-4.09A9.4,9.4,0,0,1,22,87a3.79,3.79,0,0,0,1.56-2.77A4.7,4.7,0,0,0,22.7,81a35,35,0,0,1-2.3-3.57q-1-1.84-2-3.69a4.21,4.21,0,0,0-2.3-2.42,4.27,4.27,0,0,0-3.23-.12,8.24,8.24,0,0,1-4.09.58A9.35,9.35,0,0,1,5,70.52,10.11,10.11,0,0,1,1.9,67.58a8.57,8.57,0,0,1-1.44-4Q.23,61.88.12,60.09T0,56.58q0-1.73.12-3.51t.35-3.63A8.46,8.46,0,0,1,1.9,45.57,10.13,10.13,0,0,1,5,42.63a9.37,9.37,0,0,1,3.86-1.27,8.29,8.29,0,0,1,4.09.58,4.26,4.26,0,0,0,3.23-.12,4.21,4.21,0,0,0,2.3-2.42q.92-1.84,2-3.69a35.28,35.28,0,0,1,2.3-3.57,4.69,4.69,0,0,0,.86-3.23A3.79,3.79,0,0,0,22,26.16a9.4,9.4,0,0,1-2.48-3.28,9.76,9.76,0,0,1-.86-4.09,10.29,10.29,0,0,1,1-4,9.45,9.45,0,0,1,2.65-3.28q2.88-2.07,5.93-3.86a56.44,56.44,0,0,1,6.28-3.17,10,10,0,0,1,4.21-.69,9,9,0,0,1,4,1.15,10.08,10.08,0,0,1,3.11,2.71,8.47,8.47,0,0,1,1.61,3.86,3.91,3.91,0,0,0,1.61,2.65,4.29,4.29,0,0,0,3.23.81q1-.11,2.07-.17t2.19-.06a2.32,2.32,0,0,1,1.67.75A2.44,2.44,0,0,1,59,17.28a2.57,2.57,0,0,1-2.42,2.42c-.62,0-1.23,0-1.84.06s-1.23.1-1.84.17a9.46,9.46,0,0,1-6.74-1.84,9.11,9.11,0,0,1-3.63-5.76,3.86,3.86,0,0,0-.69-1.84,4.37,4.37,0,0,0-1.38-1.27,5,5,0,0,0-2-.52,3.84,3.84,0,0,0-2,.4,39.73,39.73,0,0,0-5.76,2.77,60.11,60.11,0,0,0-5.42,3.57A5.35,5.35,0,0,0,24.08,17a4,4,0,0,0-.46,1.9,4.42,4.42,0,0,0,.4,1.9,5.43,5.43,0,0,0,1.09,1.56,8.55,8.55,0,0,1,3.28,5.93A9.55,9.55,0,0,1,26.62,35q-1,1.5-2,3.11t-1.73,3.34a9,9,0,0,1-4.9,4.9,9,9,0,0,1-6.86.17,4.6,4.6,0,0,0-1.9-.29,3.37,3.37,0,0,0-1.79.63A3.82,3.82,0,0,0,6,48.22a4.19,4.19,0,0,0-.69,1.9A30,30,0,0,0,5,53.35Q5,55,5,56.58T5,59.8A29.92,29.92,0,0,0,5.3,63,4.19,4.19,0,0,0,6,64.93a3.81,3.81,0,0,0,1.5,1.33,3.33,3.33,0,0,0,1.79.63,4.57,4.57,0,0,0,1.9-.29,9,9,0,0,1,6.86.17,9,9,0,0,1,4.9,4.9q.8,1.73,1.73,3.34t2,3.11a9.55,9.55,0,0,1,1.79,6.74,8.55,8.55,0,0,1-3.28,5.93A5.43,5.43,0,0,0,24,92.36a4.42,4.42,0,0,0-.4,1.9,4,4,0,0,0,.46,1.9,5.35,5.35,0,0,0,1.27,1.56,59.29,59.29,0,0,0,5.42,3.57,39.33,39.33,0,0,0,5.76,2.77,3.81,3.81,0,0,0,2,.4,4.94,4.94,0,0,0,2-.52,4.33,4.33,0,0,0,1.38-1.27,3.86,3.86,0,0,0,.69-1.84,9.12,9.12,0,0,1,3.63-5.76,9.47,9.47,0,0,1,6.74-1.84q.92.12,1.84.17t1.84.06a2.41,2.41,0,0,1,1.67.69A2.26,2.26,0,0,1,59,95.87a2.44,2.44,0,0,1-.75,1.79,2.31,2.31,0,0,1-1.67.75c-.77,0-1.5,0-2.19-.06s-1.38-.09-2.07-.17a4.29,4.29,0,0,0-3.23.81,4.38,4.38,0,0,0-1.73,2.65,8.81,8.81,0,0,1-1.56,3.86,9.43,9.43,0,0,1-3.05,2.71,9,9,0,0,1-2.19.86,9.56,9.56,0,0,1-2.3.29A10,10,0,0,1,36.41,109.18Zm8-40.45a17.11,17.11,0,0,1,0-24.31,16.74,16.74,0,0,1,12.21-5,2.41,2.41,0,0,1,1.67.69,2.37,2.37,0,0,1,0,3.46,2.41,2.41,0,0,1-1.67.69A12.39,12.39,0,0,0,44.25,56.58,12.39,12.39,0,0,0,56.58,68.91a2.41,2.41,0,0,1,1.67.69,2.37,2.37,0,0,1,0,3.46,2.41,2.41,0,0,1-1.67.69A16.74,16.74,0,0,1,44.36,68.73Zm15.38,43.67a2.44,2.44,0,0,1-.75-1.79,2.57,2.57,0,0,1,2.42-2.42,49.79,49.79,0,0,0,20.11-4.09A53.28,53.28,0,0,0,97.94,93,51.33,51.33,0,0,0,109,76.69a50.42,50.42,0,0,0,4-20.11,50.42,50.42,0,0,0-4-20.11A51.37,51.37,0,0,0,97.94,20.11,53.35,53.35,0,0,0,81.52,9,49.81,49.81,0,0,0,61.42,5a2.4,2.4,0,0,1-1.67-.69A2.25,2.25,0,0,1,59,2.54,2.44,2.44,0,0,1,59.75.75,2.31,2.31,0,0,1,61.42,0a54.23,54.23,0,0,1,22,4.49,58.74,58.74,0,0,1,18,12.16,56.57,56.57,0,0,1,12.16,18,55,55,0,0,1,4.44,22,55,55,0,0,1-4.44,22,56.53,56.53,0,0,1-12.16,18,58.71,58.71,0,0,1-18,12.16,54.23,54.23,0,0,1-22,4.49A2.32,2.32,0,0,1,59.75,112.41Zm0,0a2.44,2.44,0,0,1-.75-1.79,2.57,2.57,0,0,1,2.42-2.42,15.89,15.89,0,0,0,10.43-4.15,36.84,36.84,0,0,0,8.58-11.18,69.07,69.07,0,0,0,5.88-16.42A87.42,87.42,0,0,0,88.5,56.58,87.44,87.44,0,0,0,86.31,36.7a69.13,69.13,0,0,0-5.88-16.42A36.87,36.87,0,0,0,71.85,9.1,15.89,15.89,0,0,0,61.42,5a2.4,2.4,0,0,1-1.67-.69A2.25,2.25,0,0,1,59,2.54,2.44,2.44,0,0,1,59.75.75,2.31,2.31,0,0,1,61.42,0,20.56,20.56,0,0,1,74,4.38a38.35,38.35,0,0,1,10.14,12,69.63,69.63,0,0,1,6.8,18,94.81,94.81,0,0,1,2.48,22.18A94.79,94.79,0,0,1,91,78.76a69.59,69.59,0,0,1-6.8,18,38.32,38.32,0,0,1-10.14,12,20.56,20.56,0,0,1-12.62,4.38A2.32,2.32,0,0,1,59.75,112.41Zm1.67.75a2.32,2.32,0,0,1-1.67-.75,2.44,2.44,0,0,1-.75-1.79V2.54A2.44,2.44,0,0,1,59.75.75,2.31,2.31,0,0,1,61.42,0,2.44,2.44,0,0,1,63.2.75,2.44,2.44,0,0,1,64,2.54V110.62a2.56,2.56,0,0,1-2.54,2.54Zm0-83.66a2.4,2.4,0,0,1-1.67-.69,2.37,2.37,0,0,1,0-3.46,2.4,2.4,0,0,1,1.67-.69h44.25a2.55,2.55,0,0,1,1.79.69,2.37,2.37,0,0,1,0,3.46,2.55,2.55,0,0,1-1.79.69Zm0,29.5a2.4,2.4,0,0,1-1.67-.69,2.37,2.37,0,0,1,0-3.46,2.4,2.4,0,0,1,1.67-.69h54.16a2.41,2.41,0,0,1,1.67.69,2.37,2.37,0,0,1,0,3.46,2.41,2.41,0,0,1-1.67.69Zm44.25,29.5H61.42a2.4,2.4,0,0,1-1.67-.69,2.37,2.37,0,0,1,0-3.46,2.4,2.4,0,0,1,1.67-.69h44.25a2.55,2.55,0,0,1,1.79.69,2.37,2.37,0,0,1,0,3.46A2.55,2.55,0,0,1,105.67,88.5Z"/></g></g></svg>