<svg xmlns="http://www.w3.org/2000/svg" viewBox="0 0 271.26 63.4"><defs><style>.cls-1{fill:#ffffff;}</style></defs><title>Asset 8</title><g id="Layer_2" data-name="Layer 2"><g id="Layer_1-2" data-name="Layer 1"><path class="cls-1" d="M20.4,61.17a6.08,6.08,0,0,1-1-.29,31.32,31.32,0,0,1-3.52-1.78q-1.71-1-3.33-2.16A5.3,5.3,0,0,1,11,55.11a5.77,5.77,0,0,1-.58-2.23,5.48,5.48,0,0,1,.48-2.29,5.26,5.26,0,0,1,1.39-1.84,2.13,2.13,0,0,0,.87-1.55,2.63,2.63,0,0,0-.48-1.81,19.73,19.73,0,0,1-1.29-2q-.58-1-1.1-2.07A2.36,2.36,0,0,0,9,40a2.39,2.39,0,0,0-1.81-.07,4.61,4.61,0,0,1-2.29.32,5.25,5.25,0,0,1-2.16-.71,5.65,5.65,0,0,1-1.71-1.65,4.8,4.8,0,0,1-.81-2.23q-.13-1-.19-2T0,31.7q0-1,.06-2t.19-2a4.74,4.74,0,0,1,.81-2.16,5.68,5.68,0,0,1,1.71-1.65,5.25,5.25,0,0,1,2.16-.71,4.64,4.64,0,0,1,2.29.32A2.38,2.38,0,0,0,9,23.44a2.36,2.36,0,0,0,1.29-1.36q.52-1,1.1-2.07a19.84,19.84,0,0,1,1.29-2,2.63,2.63,0,0,0,.48-1.81,2.12,2.12,0,0,0-.87-1.55,5.26,5.26,0,0,1-1.39-1.84,5.48,5.48,0,0,1-.48-2.29A5.77,5.77,0,0,1,11,8.3a5.3,5.3,0,0,1,1.48-1.84q1.61-1.16,3.33-2.16a31.66,31.66,0,0,1,3.52-1.78,5.63,5.63,0,0,1,2.36-.39A5,5,0,0,1,24,2.78,5.65,5.65,0,0,1,25.7,4.29a4.75,4.75,0,0,1,.9,2.16,2.19,2.19,0,0,0,.9,1.49,2.4,2.4,0,0,0,1.81.45q.58-.06,1.16-.1t1.23,0a1.3,1.3,0,0,1,.94.42,1.36,1.36,0,0,1,.42,1A1.44,1.44,0,0,1,31.7,11c-.35,0-.69,0-1,0s-.69.05-1,.1a5.3,5.3,0,0,1-3.78-1,5.11,5.11,0,0,1-2-3.23,2.16,2.16,0,0,0-.39-1,2.45,2.45,0,0,0-.77-.71,2.78,2.78,0,0,0-1.1-.29,2.15,2.15,0,0,0-1.1.23,22.26,22.26,0,0,0-3.23,1.55,33.51,33.51,0,0,0-3,2,3,3,0,0,0-.71.87,2.22,2.22,0,0,0-.26,1.07,2.48,2.48,0,0,0,.23,1.07,3,3,0,0,0,.61.87,4.79,4.79,0,0,1,1.84,3.33,5.35,5.35,0,0,1-1,3.78q-.58.84-1.1,1.74t-1,1.87A5,5,0,0,1,10.1,26a5.05,5.05,0,0,1-3.84.1,2.58,2.58,0,0,0-1.07-.16,1.88,1.88,0,0,0-1,.35,2.14,2.14,0,0,0-.84.74A2.35,2.35,0,0,0,3,28.09a16.86,16.86,0,0,0-.16,1.81q0,.9,0,1.81t0,1.81A16.81,16.81,0,0,0,3,35.32a2.35,2.35,0,0,0,.39,1.07,2.12,2.12,0,0,0,.84.74,1.86,1.86,0,0,0,1,.36,2.56,2.56,0,0,0,1.07-.16,5.05,5.05,0,0,1,3.84.1,5.05,5.05,0,0,1,2.74,2.74q.45,1,1,1.87t1.1,1.74a5.35,5.35,0,0,1,1,3.78,4.79,4.79,0,0,1-1.84,3.33,3,3,0,0,0-.61.87,2.48,2.48,0,0,0-.23,1.07,2.22,2.22,0,0,0,.26,1.07,3,3,0,0,0,.71.87,33.3,33.3,0,0,0,3,2,22.05,22.05,0,0,0,3.23,1.55,2.13,2.13,0,0,0,1.1.23,2.76,2.76,0,0,0,1.1-.29,2.44,2.44,0,0,0,.77-.71,2.16,2.16,0,0,0,.39-1,5.11,5.11,0,0,1,2-3.23,5.31,5.31,0,0,1,3.78-1q.52.07,1,.1c.34,0,.69,0,1,0a1.35,1.35,0,0,1,.94.39,1.26,1.26,0,0,1,.42,1,1.37,1.37,0,0,1-.42,1,1.3,1.3,0,0,1-.94.42c-.43,0-.84,0-1.23,0s-.77-.05-1.16-.1a2.4,2.4,0,0,0-1.81.45,2.45,2.45,0,0,0-1,1.49,4.94,4.94,0,0,1-.87,2.16A5.28,5.28,0,0,1,24,60.63a5.09,5.09,0,0,1-1.23.48,5.37,5.37,0,0,1-1.29.16A5.6,5.6,0,0,1,20.4,61.17Zm4.46-22.66a9.59,9.59,0,0,1,0-13.62,9.38,9.38,0,0,1,6.84-2.81,1.35,1.35,0,0,1,.94.39,1.33,1.33,0,0,1,0,1.94,1.35,1.35,0,0,1-.94.39,6.94,6.94,0,0,0-6.91,6.91,6.94,6.94,0,0,0,6.91,6.91,1.35,1.35,0,0,1,.94.39,1.33,1.33,0,0,1,0,1.94,1.35,1.35,0,0,1-.94.39A9.38,9.38,0,0,1,24.86,38.51ZM33.48,63a1.37,1.37,0,0,1-.42-1,1.44,1.44,0,0,1,1.36-1.36,27.9,27.9,0,0,0,11.27-2.29,29.87,29.87,0,0,0,9.2-6.2A28.73,28.73,0,0,0,61.08,43,28.26,28.26,0,0,0,63.34,31.7a28.26,28.26,0,0,0-2.26-11.27,28.75,28.75,0,0,0-6.2-9.17,29.9,29.9,0,0,0-9.2-6.2A27.91,27.91,0,0,0,34.41,2.78a1.35,1.35,0,0,1-.94-.39,1.26,1.26,0,0,1-.42-1,1.37,1.37,0,0,1,.42-1A1.3,1.3,0,0,1,34.41,0,30.39,30.39,0,0,1,46.75,2.52,32.9,32.9,0,0,1,56.82,9.33,31.69,31.69,0,0,1,63.63,19.4a30.81,30.81,0,0,1,2.49,12.3A30.81,30.81,0,0,1,63.63,44a31.65,31.65,0,0,1-6.81,10.07,32.87,32.87,0,0,1-10.07,6.81A30.39,30.39,0,0,1,34.41,63.4,1.3,1.3,0,0,1,33.48,63Zm0,0a1.37,1.37,0,0,1-.42-1,1.44,1.44,0,0,1,1.36-1.36,8.9,8.9,0,0,0,5.84-2.32A20.64,20.64,0,0,0,45.07,52a38.72,38.72,0,0,0,3.29-9.2A49,49,0,0,0,49.59,31.7a49,49,0,0,0-1.23-11.14,38.73,38.73,0,0,0-3.29-9.2A20.65,20.65,0,0,0,40.26,5.1a8.9,8.9,0,0,0-5.84-2.32,1.35,1.35,0,0,1-.94-.39,1.26,1.26,0,0,1-.42-1,1.37,1.37,0,0,1,.42-1A1.3,1.3,0,0,1,34.41,0a11.52,11.52,0,0,1,7.07,2.45A21.47,21.47,0,0,1,47.16,9.2,39,39,0,0,1,51,19.27,53.2,53.2,0,0,1,52.36,31.7,53.19,53.19,0,0,1,51,44.13,38.94,38.94,0,0,1,47.16,54.2a21.46,21.46,0,0,1-5.68,6.75,11.52,11.52,0,0,1-7.07,2.45A1.3,1.3,0,0,1,33.48,63Zm.94.42a1.3,1.3,0,0,1-.94-.42,1.37,1.37,0,0,1-.42-1V1.42a1.37,1.37,0,0,1,.42-1A1.3,1.3,0,0,1,34.41,0a1.37,1.37,0,0,1,1,.42,1.37,1.37,0,0,1,.42,1V62a1.43,1.43,0,0,1-1.42,1.42Zm0-46.87a1.35,1.35,0,0,1-.94-.39,1.33,1.33,0,0,1,0-1.94,1.35,1.35,0,0,1,.94-.39H59.21a1.43,1.43,0,0,1,1,.39,1.33,1.33,0,0,1,0,1.94,1.42,1.42,0,0,1-1,.39Zm0,16.53a1.35,1.35,0,0,1-.94-.39,1.33,1.33,0,0,1,0-1.94,1.35,1.35,0,0,1,.94-.39H64.76a1.35,1.35,0,0,1,.94.39,1.33,1.33,0,0,1,0,1.94,1.35,1.35,0,0,1-.94.39ZM59.21,49.59H34.41a1.35,1.35,0,0,1-.94-.39,1.33,1.33,0,0,1,0-1.94,1.35,1.35,0,0,1,.94-.39H59.21a1.43,1.43,0,0,1,1,.39,1.33,1.33,0,0,1,0,1.94A1.43,1.43,0,0,1,59.21,49.59Z"/><path class="cls-1" d="M73.8,18.55V15.42h2.7v3.13Zm0,22.07v-18h2.7v18Z"/><path class="cls-1" d="M84.38,40.62h-2.7v-18h2.66v1.26a10.2,10.2,0,0,1,5.26-1.62q3.35,0,4.68,1.84a13.23,13.23,0,0,1,3.08-1.28,12,12,0,0,1,3.33-.56q3.6,0,4.84,1.93t1.24,6.93v9.5h-2.7V31.19a12.44,12.44,0,0,0-.72-5.13q-.72-1.39-3.06-1.39a9.35,9.35,0,0,0-2.45.34,12.28,12.28,0,0,0-1.94.67l-.68.32a18,18,0,0,1,.47,5.26v9.36H93V31.33a13.23,13.23,0,0,0-.7-5.27q-.7-1.39-3.08-1.39a8.64,8.64,0,0,0-2.36.34,11.18,11.18,0,0,0-1.85.67l-.61.32Z"/><path class="cls-1" d="M114.48,40.62h-2.7v-18h2.66v1.26a10.2,10.2,0,0,1,5.26-1.62q3.35,0,4.68,1.84a13.23,13.23,0,0,1,3.08-1.28,12,12,0,0,1,3.33-.56q3.6,0,4.84,1.93t1.24,6.93v9.5h-2.7V31.19a12.42,12.42,0,0,0-.72-5.13q-.72-1.39-3.06-1.39a9.35,9.35,0,0,0-2.45.34,12.27,12.27,0,0,0-1.94.67l-.68.32a18,18,0,0,1,.47,5.26v9.36h-2.7V31.33a13.23,13.23,0,0,0-.7-5.27q-.7-1.39-3.08-1.39a8.64,8.64,0,0,0-2.36.34,11.18,11.18,0,0,0-1.85.67l-.61.32Z"/><path class="cls-1" d="M154.11,38.39l1-.11.07,2.12a51.72,51.72,0,0,1-7,.58q-3.89,0-5.51-2.25t-1.62-7q0-9.47,7.52-9.47a6.88,6.88,0,0,1,5.44,2q1.8,2,1.8,6.39l-.14,2.05H143.82a7.38,7.38,0,0,0,1.08,4.43q1.08,1.44,3.76,1.44T154.11,38.39Zm-1-7.81q0-3.31-1.06-4.68a4.11,4.11,0,0,0-3.46-1.37A4.43,4.43,0,0,0,145,26a7.27,7.27,0,0,0-1.24,4.61Z"/><path class="cls-1" d="M160.05,40.62v-18h2.66v2.45a17.54,17.54,0,0,1,6.59-2.84V25a19.41,19.41,0,0,0-3.15.9,20.87,20.87,0,0,0-2.5,1.08l-.9.47V40.62Z"/><path class="cls-1" d="M178.16,24.67q-3.92,0-3.92,2.74a1.89,1.89,0,0,0,.9,1.78,15.28,15.28,0,0,0,4.1,1.08,10.94,10.94,0,0,1,4.54,1.57q1.33,1,1.33,3.78a4.69,4.69,0,0,1-1.78,4.07,8.79,8.79,0,0,1-5.2,1.3,32.67,32.67,0,0,1-5.26-.5l-1.08-.18.14-2.34a45.86,45.86,0,0,0,6.19.61,6.2,6.2,0,0,0,3.19-.67,2.4,2.4,0,0,0,1.1-2.23,2.27,2.27,0,0,0-.94-2.12,13.84,13.84,0,0,0-4.1-1.06,10.84,10.84,0,0,1-4.5-1.48q-1.33-1-1.33-3.6a4.37,4.37,0,0,1,1.85-3.89A8,8,0,0,1,178,22.26a38,38,0,0,1,5.51.5l1,.18-.07,2.3A46.9,46.9,0,0,0,178.16,24.67Z"/><path class="cls-1" d="M189.25,18.55V15.42h2.7v3.13Zm0,22.07v-18h2.7v18Z"/><path class="cls-1" d="M195.44,22.62h2.88l4.21,15.66h1.33l4.36-15.66H211l-5.08,18h-5.4Z"/><path class="cls-1" d="M226.37,38.39l1-.11.07,2.12a51.72,51.72,0,0,1-7,.58q-3.89,0-5.51-2.25t-1.62-7q0-9.47,7.52-9.47a6.88,6.88,0,0,1,5.44,2q1.8,2,1.8,6.39l-.14,2.05H216.07a7.38,7.38,0,0,0,1.08,4.43q1.08,1.44,3.76,1.44T226.37,38.39Zm-1-7.81q0-3.31-1.06-4.68a4.11,4.11,0,0,0-3.46-1.37,4.43,4.43,0,0,0-3.6,1.44A7.27,7.27,0,0,0,216,30.58Z"/><path class="cls-1" d="M251.46,28.35q0,6.66-2.12,9.65t-7.72,3q-5.6,0-7.72-3.06t-2.12-9.63q0-6.57,2.16-9.76t7.67-3.19q5.51,0,7.69,3.17T251.46,28.35Zm-16.85-.07q0,5.47,1.44,7.87t5.56,2.39q4.12,0,5.54-2.34t1.42-7.85q0-5.51-1.48-8t-5.53-2.52q-4.05,0-5.51,2.5T234.61,28.28Z"/><path class="cls-1" d="M263.41,17.76q-5.4,0-5.4,4.07a3.51,3.51,0,0,0,1.24,3.11,16.58,16.58,0,0,0,5,1.69,12.81,12.81,0,0,1,5.38,2.2q1.58,1.35,1.58,4.45,0,7.67-8,7.67a44.57,44.57,0,0,1-6.59-.61l-1.3-.18.29-2.3a61.5,61.5,0,0,0,7.45.65q5.33,0,5.33-5a3.4,3.4,0,0,0-1.17-2.9,11.37,11.37,0,0,0-4.37-1.49,14.74,14.74,0,0,1-6-2.32Q255.2,25.36,255.2,22q0-6.7,8-6.7a44.2,44.2,0,0,1,6.3.54l1.22.18-.25,2.34A67.57,67.57,0,0,0,263.41,17.76Z"/></g></g></svg>