<svg xmlns="http://www.w3.org/2000/svg" viewBox="0 0 265.54 265.54"><defs><style>.cls-1{fill:#FFFFFF;}</style></defs><title>Asset 2</title><g id="Layer_2" data-name="Layer 2"><g id="Layer_1-2" data-name="Layer 1"><path class="cls-1" d="M0,132.76A132.77,132.77,0,0,1,132.76,0h0A132.77,132.77,0,0,1,265.54,132.76h0A132.79,132.79,0,0,1,132.76,265.54h0A132.78,132.78,0,0,1,0,132.76ZM45.85,45.85a122.51,122.51,0,0,0-36,86.91h0a122.53,122.53,0,0,0,36,86.92h0a122.48,122.48,0,0,0,86.9,36h0a122.52,122.52,0,0,0,86.93-36h0a122.53,122.53,0,0,0,36-86.92h0a122.49,122.49,0,0,0-36-86.91h0a122.54,122.54,0,0,0-86.93-36h0a122.51,122.51,0,0,0-86.91,36Z"/><path class="cls-1" d="M69.66,127,122,193.91h.23V127H135V215H122.27L69.9,148.11h-.24V215H57V127Z"/><path class="cls-1" d="M162.46,127l26.89,37.58L216,127H232.1l-36.64,50.14V215H182.78V177.11L147.2,127Z"/><path class="cls-1" d="M68.28,62l-.08.06L77.31,75.4l-4.19,2.87L58.82,57.38,63,54.51,77.53,60l.16-15.51,4.2-2.87L96.18,62.48,92,65.35,82.88,52l-.08.05-.08,15.45Z"/><path class="cls-1" d="M109.92,32.5l6.64-1.18L133.23,54l-5.67,1-3.44-4.8-14.58,2.6L108,58.56l-5.67,1Zm1.18,14.93,9.62-1.72-6.56-9Z"/><path class="cls-1" d="M158.55,33.13c5.68,1.26,11.88,5.53,9.85,14.74-1.8,8.16-7.93,11.61-15.32,10l-13.41-3,5.47-24.71ZM145.73,51l8.44,1.87c4.34,1,8.09-.81,9.2-5.82,1.29-5.82-2.06-8.11-5.92-9L149,36.22Z"/><path class="cls-1" d="M206.8,57.45l-2.93,4.15-14.21-10L187,55.33l7.5,5.3-2.93,4.15-7.5-5.3-3.16,4.47,14.69,10.37-2.93,4.15-18.84-13.3,14.6-20.67Z"/><path class="cls-1" d="M117.63,80.5v24.81h-5V80.5Z"/><path class="cls-1" d="M130.57,80.5h5l13.61,16.77h.1V80.5h5v24.81h-5l-13.6-16.76h-.1v16.76h-5Z"/></g><g id="Layer_2-2" data-name="Layer 2"><path class="cls-1" d="M239.2,21.66H237v-.49c0-1-.43-1.84-1.54-1.84s-1.47,1-1.47,2c0,1.17.11,1.58,1.24,2l1.67.66c1.92.73,2.28,1.94,2.28,4.16,0,2.56-.94,4.46-3.76,4.46A3.59,3.59,0,0,1,231.73,29v-.81h2.18v.68a1.44,1.44,0,0,0,1.54,1.56c1.47,0,1.58-.87,1.58-2.26,0-1.62-.19-1.88-1.26-2.31l-1.56-.64c-1.88-.77-2.37-2-2.37-3.91,0-2.31,1.24-4.16,3.74-4.16a3.56,3.56,0,0,1,3.63,3.44Z"/><path class="cls-1" d="M241.89,17.28H244l2.8,8h0l2.77-8h2.11v15.2h-2.18V23.24h0l-2.16,6.53h-1.09l-2.13-6.53h0v9.24h-2.18Z"/></g></g></svg>