<svg xmlns="http://www.w3.org/2000/svg" viewBox="0 0 112.99 111.16"><defs><style>.cls-1{fill:none;stroke:#2e3192;stroke-miterlimit:10;}</style></defs><title>thin-blueAsset 12</title><g id="Layer_2" data-name="Layer 2"><g id="Layer_1-2" data-name="Layer 1"><path class="cls-1" d="M58.24,110.65h-.82a.81.81,0,0,1-.61-.31.94.94,0,0,1-.31-.72V95.92L55,95.9c-.53,0-1,0-1.54-.05-.67,0-1.33-.09-2-.17a6.78,6.78,0,0,0-.82-.05,5.67,5.67,0,0,0-3.47,1.15,5.86,5.86,0,0,0-2.29,3.54,7.4,7.4,0,0,1-1.3,3.29A8,8,0,0,1,41,105.89a7.51,7.51,0,0,1-1.82.72,8.07,8.07,0,0,1-1.94.24,8.52,8.52,0,0,1-1.57-.15,9.57,9.57,0,0,1-1.59-.45,55,55,0,0,1-6-3.06c-2-1.16-3.94-2.43-5.81-3.78a7.93,7.93,0,0,1-2.18-2.72,8.82,8.82,0,0,1-.89-3.4,8.26,8.26,0,0,1,.73-3.39A7.84,7.84,0,0,1,22,87.14a5.25,5.25,0,0,0,2.07-3.76,6.18,6.18,0,0,0-1.12-4.23A34.09,34.09,0,0,1,20.7,75.7c-.67-1.18-1.31-2.38-1.9-3.57a5.67,5.67,0,0,0-3.08-3.18,6,6,0,0,0-2.35-.5,5.84,5.84,0,0,0-2,.35,6.88,6.88,0,0,1-2.65.54,7.11,7.11,0,0,1-.78,0,7.89,7.89,0,0,1-3.25-1.06,8.64,8.64,0,0,1-2.58-2.49A7,7,0,0,1,1,62.45C.8,61.29.68,60.15.61,59S.5,56.71.5,55.58s0-2.28.11-3.42.19-2.35.34-3.54a7,7,0,0,1,1.19-3.21,8.69,8.69,0,0,1,2.61-2.51,7.79,7.79,0,0,1,3.23-1,7.16,7.16,0,0,1,.77,0,6.79,6.79,0,0,1,2.59.51,5.75,5.75,0,0,0,4.39-.12A5.67,5.67,0,0,0,18.8,39c.59-1.18,1.23-2.38,1.9-3.57A33.94,33.94,0,0,1,22.91,32a6.2,6.2,0,0,0,1.15-4.26A5.32,5.32,0,0,0,21.91,24a7.78,7.78,0,0,1-2-2.7,8.21,8.21,0,0,1-.73-3.47,8.78,8.78,0,0,1,.89-3.32,8,8,0,0,1,2.24-2.77C24.1,10.4,26.05,9.12,28,8a55.21,55.21,0,0,1,6.11-3.08,8.61,8.61,0,0,1,3.09-.58h.45a7.46,7.46,0,0,1,3.32,1,8.63,8.63,0,0,1,2.65,2.31A6.93,6.93,0,0,1,45,10.76a5.36,5.36,0,0,0,2.19,3.62,5.67,5.67,0,0,0,3.47,1.15,6.8,6.8,0,0,0,.85-.05c.64-.07,1.31-.12,2-.16.49,0,1,0,1.54-.05l1.48,0V1.54a.94.94,0,0,1,.31-.73A.82.82,0,0,1,57.42.5h1c.46,0,.87,0,1.28,0a52.58,52.58,0,0,1,19.1,4.32A57.52,57.52,0,0,1,96.34,16.72a55.34,55.34,0,0,1,11.83,17.5,55,55,0,0,1,0,42.72,55.31,55.31,0,0,1-11.83,17.5,57.49,57.49,0,0,1-17.52,11.85,52.49,52.49,0,0,1-19.05,4.32c-.48,0-.91,0-1.35,0Zm.22-1.86,1.66-.18a17.9,17.9,0,0,0,9.7-4.41,38.51,38.51,0,0,0,8.94-11.62c.75-1.42,1.46-2.93,2.11-4.5L81.74,86H58.45ZM83.6,87a59.17,59.17,0,0,1-3.73,8,41.46,41.46,0,0,1-5.81,8l1.62,2.43c.82-.31,1.64-.64,2.45-1A55,55,0,0,0,95,93.11a52.28,52.28,0,0,0,4.19-4.69L101.11,86H84ZM34.93,104.43a5.3,5.3,0,0,0,2.33.53h.32a6.46,6.46,0,0,0,2.54-.67A5.9,5.9,0,0,0,42,102.54a5.35,5.35,0,0,0,1-2.48,7.6,7.6,0,0,1,3-4.79,7.8,7.8,0,0,1,4.82-1.59q.44,0,.88,0c.59.08,1.24.14,1.89.18q.66,0,1.33.05l1.53,0V71.28l-1.46,0a15.11,15.11,0,0,1-10.62-4.57,14.88,14.88,0,0,1-4.62-11.09,14.88,14.88,0,0,1,4.63-11.09A15.11,15.11,0,0,1,55,39.92l1.46,0V17.18l-1.53,0-1.32.05c-.65,0-1.29.1-1.94.18-.25,0-.55,0-.84,0A7.79,7.79,0,0,1,46,15.89a7.59,7.59,0,0,1-3-4.79,5.36,5.36,0,0,0-1-2.48,5.91,5.91,0,0,0-1.86-1.7,6.57,6.57,0,0,0-2.62-.71h-.31a5.33,5.33,0,0,0-2.33.53,41.42,41.42,0,0,0-5.57,2.65,48.33,48.33,0,0,0-5.9,3.86l-.08.07a6.86,6.86,0,0,0-1.62,2,5.46,5.46,0,0,0-.64,2.6,5.92,5.92,0,0,0,.55,2.54,6.91,6.91,0,0,0,1.39,2l.06.06.06.05a7,7,0,0,1,2.73,4.93,8,8,0,0,1-1.52,5.71c-.73,1.05-1.41,2.13-2,3.23s-1.24,2.28-1.79,3.45A7.53,7.53,0,0,1,16.45,44a7.52,7.52,0,0,1-5.75.15,6.09,6.09,0,0,0-2.14-.39H8.19a4.85,4.85,0,0,0-2.47.84,5.32,5.32,0,0,0-2,1.78A5.7,5.7,0,0,0,2.81,49a31.24,31.24,0,0,0-.29,3.34c0,1.09-.06,2.18-.06,3.28s0,2.19.06,3.28a31.44,31.44,0,0,0,.3,3.38,5.63,5.63,0,0,0,.93,2.52,5.3,5.3,0,0,0,2,1.78,4.83,4.83,0,0,0,2.47.84h.37A6.09,6.09,0,0,0,10.7,67a7.52,7.52,0,0,1,5.75.15,7.5,7.5,0,0,1,4.11,4.11q.85,1.83,1.8,3.49c.62,1.09,1.31,2.18,2,3.22a8,8,0,0,1,1.53,5.72,7,7,0,0,1-2.73,4.93l-.06.05-.06.06a6.92,6.92,0,0,0-1.39,2,5.92,5.92,0,0,0-.54,2.53,5.46,5.46,0,0,0,.64,2.61,6.84,6.84,0,0,0,1.62,2l.08.07A60.81,60.81,0,0,0,29,101.58,41,41,0,0,0,34.93,104.43ZM88.92,58a92,92,0,0,1-2.41,19.44c-.4,1.65-.83,3.27-1.3,4.81l-.59,1.94h17.61l.44-.71a55.23,55.23,0,0,0,3.71-7.17,51.64,51.64,0,0,0,4.1-18.22l.07-1.56H89ZM58.45,84.16H82.38l.34-1c.76-2.3,1.45-4.77,2.05-7.33A88,88,0,0,0,87,58l0-1.54H58.45Zm-3.52-42.4A13.9,13.9,0,0,0,41.75,55.58,13.9,13.9,0,0,0,54.93,69.39l1.56.07V41.7ZM85.21,28.93c.47,1.54.91,3.16,1.3,4.81a92.1,92.1,0,0,1,2.41,19.44l0,1.47h21.6l-.07-1.56a51.66,51.66,0,0,0-4.1-18.22,55.42,55.42,0,0,0-3.71-7.17l-.44-.71H84.63ZM58.45,54.66H87l0-1.54a88.05,88.05,0,0,0-2.2-17.76c-.6-2.56-1.29-5-2.05-7.33l-.34-1H58.45ZM74.06,8.11a41.49,41.49,0,0,1,5.81,8,59.13,59.13,0,0,1,3.73,8l.37,1h17.14l-1.92-2.43A52.26,52.26,0,0,0,95,18,55.08,55.08,0,0,0,78.12,6.67c-.81-.35-1.63-.68-2.45-1Zm-15.6,17H81.74l-.87-2.08c-.65-1.56-1.36-3.07-2.11-4.5A38.53,38.53,0,0,0,69.81,7a17.9,17.9,0,0,0-9.7-4.41l-1.66-.18Z"/></g></g></svg>